<svg xmlns="http://www.w3.org/2000/svg" width="256" height="256"><path fill="#1976D2" fill-opacity=".016" fill-rule="evenodd" d="M0 128.004v128.004l128.25-.254 128.25-.254.254-127.75L257.008 0H0zm.485.496c0 70.4.119 99.053.265 63.672s.146-92.98 0-128S.485 58.1.485 128.5"/><path fill="#1976D2" fill-opacity=".275" fill-rule="evenodd" d="M109.5 10.556c-12.891 7.543-34.079 19.727-47 27.028-1.1.621-8.075 4.644-15.5 8.94s-16.987 9.787-21.25 12.202L18 63.119v63.286c0 59.022.118 63.388 1.75 64.814.963.842 7.15 4.543 13.75 8.225s18.525 10.482 26.5 15.111 14.843 8.423 15.262 8.431 10.882-5.889 23.25-13.103L121 196.766v-11.883c0-13.459-.04-13.51-7.054-9.067-2.445 1.548-12.05 7.225-21.345 12.614l-16.899 9.799-3.553-1.695c-1.954-.932-6.829-3.683-10.834-6.114S53.757 186 53.418 186c-.978 0-12.839-7.374-13.658-8.491-.407-.555-.632-23.715-.5-51.466l.24-50.458 5.5-3.149c11.44-6.551 42.018-24.022 55-31.424 7.425-4.234 16.357-9.392 19.848-11.461 4.596-2.723 7.08-3.614 9-3.226 1.459.294 10.433 5.067 19.944 10.605S166.363 47 166.703 47C167.851 47 187 35.623 187 34.94c0-.372-7.988-5.297-17.75-10.945s-22.603-13.132-28.535-16.632-11.781-6.32-13-6.267-9.415 4.31-18.215 9.46M196 57.081c-6.325 3.794-12.175 7.201-13 7.571-1.388.623-27.021 14.972-35 19.593-6.738 3.902-10.605 6.075-24 13.491-7.425 4.11-13.95 7.823-14.5 8.25s-10.45 6.046-22 12.488-21.787 12.416-22.75 13.275c-1.586 1.415-1.75 4.125-1.75 28.906C63 186.65 63.092 188 64.86 188c1.024 0 3.386-1.031 5.25-2.291 1.865-1.261 5.953-3.755 9.086-5.543s5.94-4.02 6.239-4.96.48-8.128.403-15.974.042-14.418.262-14.605C87.861 143.132 123.63 124 124.665 124c1.094 0 1.335 8.308 1.335 46 0 25.3.364 46 .809 46s3.482-1.628 6.75-3.617 7.741-4.646 9.941-5.902l4-2.285.5-47.046.5-47.047 4.5-2.919c2.475-1.606 10.35-6.182 17.5-10.171s18.982-10.612 26.293-14.719c12.906-7.251 13.364-7.421 15.75-5.858l2.457 1.61v101.763l-5.25 2.997c-2.887 1.649-12 6.924-20.25 11.724s-19.5 11.287-25 14.416c-5.5 3.13-15.926 9.147-23.169 13.372s-13.768 7.679-14.5 7.675c-.732-.003-2.681-.9-4.331-1.993s-3.675-1.982-4.5-1.976c-2.45.017-19.474 10.488-19.8 12.178-.209 1.084 4.13 4.047 14.289 9.758l14.59 8.202 14.544-8.331c7.999-4.582 15.969-9.164 17.71-10.183s12.617-7.287 24.167-13.928 23.475-13.528 26.5-15.302c3.025-1.775 10.341-5.987 16.257-9.362l10.758-6.135-.258-64.143-.257-64.143-12.473-7.317c-6.86-4.025-13.385-7.277-14.5-7.226-1.115.05-7.202 3.195-13.527 6.989m-78 1.028c-6.875 3.898-16.1 9.229-20.5 11.848-4.4 2.618-12.275 7.14-17.5 10.049-5.225 2.91-11.187 6.354-13.25 7.655L63 90.025v11.321c0 6.226.275 11.596.612 11.933.719.719 3.067-.576 39.819-21.948l27.931-16.243 4.832 2.706 4.833 2.706 3.237-1.878a946 946 0 0 1 7.736-4.42c9.544-5.389 10.131-5.852 8.777-6.922-1.893-1.496-20.826-12.276-21.606-12.302-.369-.012-1.796-.902-3.171-1.978s-3.175-1.96-4-1.967c-.825-.006-7.125 3.179-14 7.076m65.907 37.267a468 468 0 0 1-10.136 5.992l-4.73 2.692-.27 20.137-.271 20.137-6.5 3.961c-3.575 2.179-6.831 4.467-7.235 5.084-.9 1.374-.999 15.199-.14 19.496.344 1.719 1.057 3.125 1.584 3.125s8.572-4.362 17.875-9.694L191 156.612v-31.747c0-17.461-.379-31.981-.843-32.268s-3.275.965-6.25 2.779"/><path fill="#1976D2" fill-opacity=".549" fill-rule="evenodd" d="M120 5.327a76313 76313 0 0 1-38 21.857 25413 25413 0 0 0-60.25 34.725L19.001 63.5l.249 63.452.25 63.453 10.5 6.11C67.766 218.49 73.998 222 75.25 222c.768 0 6.743-3.176 13.277-7.058s16.288-9.532 21.676-12.556l9.797-5.499v-11.55c0-9.843-.221-11.466-1.496-10.977-.823.316-5.885 3.125-11.25 6.242-26.818 15.585-30.823 17.78-32.232 17.671-1.56-.121-28.327-14.978-33.272-18.468L39 177.864V75.118l18.75-10.705A56303 56303 0 0 0 87 47.702a3844 3844 0 0 1 13.956-7.952c1.901-1.071 8.473-4.828 14.605-8.349s11.776-6.396 12.544-6.39c.767.006 5.67 2.531 10.895 5.61C154.189 39.575 165.919 46 167.075 46c1.262 0 18.879-10.268 18.873-11-.005-.578-2.539-2.098-33.024-19.812-12.418-7.214-23.218-13.357-24-13.651-.783-.293-4.799 1.412-8.924 3.79m77.949 51.307c-6.297 3.648-18.874 10.797-27.949 15.885-26.353 14.775-44.462 24.992-76.25 43.02L64 132.412v27.794c0 15.287.186 27.794.413 27.794.228 0 4.84-2.609 10.25-5.797l9.837-5.797.274-15.979.273-15.979 8.727-4.741c4.799-2.608 10.976-6.088 13.726-7.734 7.22-4.321 16.277-8.973 17.471-8.973.69 0 1.029 15.15 1.029 46 0 32.192.323 46 1.077 46 .592 0 5.317-2.53 10.5-5.623l9.423-5.623v-46.755c0-36.199.282-46.981 1.25-47.761.688-.554 6.65-4.038 13.25-7.742s13.8-7.746 16-8.983C200.217 79.74 209.07 75 210.207 75c.741 0 2.348.701 3.57 1.557L216 78.113v101.742l-5.75 3.45c-3.162 1.898-9.125 5.33-13.25 7.628s-16.05 9.136-26.5 15.196c-10.45 6.059-24.521 14.165-31.27 18.013l-12.269 6.997-3.349-2.07c-1.841-1.138-4.364-2.069-5.606-2.069-2.024 0-18.439 9.273-19.525 11.03-.645 1.044 26.085 16.97 28.483 16.97.568 0 6.096-2.87 12.284-6.379 21.52-12.2 38.273-21.867 41.752-24.092 3.403-2.176 21.724-12.717 42.948-24.709 5.746-3.247 11.034-6.39 11.75-6.984 1.044-.867 1.302-13.608 1.302-64.368V65.181l-7.75-4.315c-4.262-2.372-8.476-4.776-9.364-5.34-2.373-1.508-9.751-5.526-10.147-5.526-.188 0-5.493 2.985-11.79 6.634M98.5 70.006C81.45 79.851 66.713 88.38 65.75 88.961c-1.504.907-1.75 2.672-1.75 12.547 0 6.321.198 11.492.439 11.492.242 0 7.33-4.005 15.75-8.9C121.817 79.902 130.502 75 131.752 75c.745 0 2.972 1.1 4.951 2.444l3.596 2.444 7.6-4.142c4.181-2.278 8.883-4.907 10.449-5.843l2.848-1.7-7.348-4.248c-4.041-2.336-10.352-5.981-14.022-8.101s-7.496-3.83-8.5-3.801c-1.005.03-15.776 8.108-32.826 17.953m80.994 28.75-9.994 5.757-.27 20.142-.271 20.141-6.979 4.147-6.98 4.146v23.085l7.637-4.119c4.2-2.266 12.06-6.692 17.466-9.837l9.83-5.718.034-31.75c.018-17.463-.082-31.75-.223-31.75s-4.753 2.59-10.25 5.756"/><path fill="#1976D2" fill-opacity=".439" fill-rule="evenodd" d="M193.945 59.348C173.64 71.082 160.121 78.756 140.5 89.682c-9.35 5.207-18.575 10.393-20.5 11.526s-10.7 6.113-19.5 11.067-20.5 11.546-26 14.649l-10 5.642-.266 27.217c-.146 14.969.063 27.217.465 27.217 1.171 0 18.723-10.256 19.565-11.432.42-.588.594-7.143.385-14.568s-.08-14.335.286-15.357c.594-1.655 11.257-8.101 32.694-19.762 5.806-3.158 7.335-3.629 8.24-2.539.769.927 1.19 15.182 1.371 46.375l.26 45.037 9.708-5.627 9.708-5.627.042-47.073.042-47.074 21.25-12.069c42.619-24.208 41.304-23.566 44.689-21.815 2.079 1.074 3.145 2.512 3.548 4.783.317 1.787.449 24.667.295 50.845-.224 37.837-.555 47.926-1.613 49.2-.733.883-6.808 4.706-13.5 8.496-11.28 6.389-33.345 19.09-53.669 30.895-4.675 2.715-11.329 6.483-14.787 8.374l-6.287 3.438-3.911-2.25c-2.151-1.237-4.421-2.25-5.044-2.25-1.358 0-18.86 10.248-18.925 11.082-.059.747 7.024 5.231 18.637 11.798l9.183 5.193 11.317-6.402c6.224-3.521 18.067-10.343 26.317-15.159 14.023-8.187 20.985-12.192 55.44-31.896 7.392-4.228 14.029-8.175 14.75-8.774 1.055-.875 1.31-13.405 1.31-64.327v-63.24l-12.398-7.137C216.783 54.212 210.571 51 209.797 51s-7.908 3.757-15.852 8.348"/></svg>